<?xml version="1.0" encoding="UTF-8"?>
<svg version="1.1" xmlns="http://www.w3.org/2000/svg" width="453" height="525">
<path d="M0 0 C149.49 0 298.98 0 453 0 C453 173.25 453 346.5 453 525 C303.51 525 154.02 525 0 525 C0 351.75 0 178.5 0 0 Z " fill="#FEFEFE" transform="translate(0,0)"/>
<path d="M0 0 C0.66 0 1.32 0 2 0 C2 21.45 2 42.9 2 65 C15.53 65 29.06 65 43 65 C43 65.66 43 66.32 43 67 C29.47 67 15.94 67 2 67 C2 68.65 2 70.3 2 72 C-0.91517292 70.92598892 -2.77810176 70.22189824 -5 68 C-6.85536424 67.67110612 -6.85536424 67.67110612 -8.99072266 67.68115234 C-9.82289307 67.66109131 -10.65506348 67.64103027 -11.51245117 67.62036133 C-12.82499878 67.60332153 -12.82499878 67.60332153 -14.1640625 67.5859375 C-14.96803467 67.56829346 -15.77200684 67.55064941 -16.6003418 67.5324707 C-19.60835641 67.4693259 -22.61670869 67.42319296 -25.625 67.375 C-32.34875 67.25125 -39.0725 67.1275 -46 67 C-46 92.08 -46 117.16 -46 143 C-30.82 143 -15.64 143 0 143 C0 141.35 0 139.7 0 138 C0.66 138 1.32 138 2 138 C2 139.65 2 141.3 2 143 C19.82 143 37.64 143 56 143 C51.20456877 137.00571096 46.40746045 131.01625737 41.5625 125.0625 C41.00175781 124.37285156 40.44101562 123.68320313 39.86328125 122.97265625 C36.04308736 118.27627111 32.2116409 113.58920874 28.375 108.90625 C24.8473831 104.5895609 21.3331157 100.26203489 17.82324219 95.9309082 C15.2995845 92.81886965 12.76972135 89.71348631 10.203125 86.63671875 C9.39359375 85.66347656 8.5840625 84.69023437 7.75 83.6875 C7.04359375 82.84574219 6.3371875 82.00398438 5.609375 81.13671875 C4 79 4 79 3 76 C6.81346128 77.51681494 8.67252097 79.74453026 11.1875 82.9375 C12.37666016 84.43023437 12.37666016 84.43023437 13.58984375 85.953125 C14.38519531 86.95859375 15.18054688 87.9640625 16 89 C17.41313076 90.73205752 18.82977257 92.46125672 20.25 94.1875 C24.57770698 99.47607899 28.88578554 104.78047579 33.19335938 110.08544922 C38.59134389 116.7316781 44.01019905 123.36065763 49.4453125 129.9765625 C50.24710937 130.95367187 51.04890625 131.93078125 51.875 132.9375 C52.95394531 134.25041016 52.95394531 134.25041016 54.0546875 135.58984375 C56 138 56 138 57.15209961 140.11254883 C59.45720203 142.46698757 61.1529091 142.50956479 64.3712616 142.60565186 C65.07761246 142.60688049 65.78396332 142.60810913 66.51171875 142.609375 C67.23994339 142.62591125 67.96816803 142.64244751 68.71846008 142.65948486 C71.04155865 142.70802197 73.3640025 142.72934669 75.6875 142.75 C77.26370492 142.77815518 78.83987926 142.80808199 80.41601562 142.83984375 C84.27728983 142.91378144 88.13819939 142.96332032 92 143 C92 143.66 92 144.32 92 145 C82.1 145 72.2 145 62 145 C67.62398315 152.24423891 67.62398315 152.24423891 73.375 159.375 C74.13425781 160.29925781 74.89351563 161.22351563 75.67578125 162.17578125 C76.44277344 163.10777344 77.20976562 164.03976563 78 165 C81.00615792 168.66167447 84.00457226 172.32954629 87 176 C87.7734375 176.9384375 88.546875 177.876875 89.34375 178.84375 C90.0759375 179.7409375 90.808125 180.638125 91.5625 181.5625 C92.22378906 182.36816406 92.88507813 183.17382812 93.56640625 184.00390625 C95 186 95 186 95 188 C91.39810723 186.79936908 90.65694143 185.60185363 88.375 182.625 C87.66472656 181.71234375 86.95445312 180.7996875 86.22265625 179.859375 C85.48917969 178.91578125 84.75570313 177.9721875 84 177 C82.61005464 175.28687264 81.2141015 173.57860403 79.8125 171.875 C75.90764308 167.11148345 72.01265237 162.34007084 68.125 157.5625 C67.56530518 156.87591309 67.00561035 156.18932617 66.42895508 155.48193359 C65.89810303 154.82918457 65.36725098 154.17643555 64.8203125 153.50390625 C64.34867676 152.92455322 63.87704102 152.3452002 63.39111328 151.74829102 C62 150 62 150 60.7613678 147.92485046 C59.13594208 145.77063738 59.13594208 145.77063738 56.47529602 145.48101807 C55.46935898 145.47213562 54.46342194 145.46325317 53.42700195 145.45410156 C52.28604568 145.43438293 51.14508942 145.41466431 49.96955872 145.39434814 C48.12257637 145.39250519 48.12257637 145.39250519 46.23828125 145.390625 C44.97735153 145.37408875 43.71642181 145.35755249 42.4172821 145.34051514 C39.06830746 145.30012841 35.72009494 145.27683897 32.37097168 145.26177979 C28.95223651 145.24221577 25.53377758 145.2004615 22.11523438 145.16015625 C15.40997958 145.08273307 8.70593519 145.04237558 2 145 C2 153.25 2 161.5 2 170 C2.99 170.33 3.98 170.66 5 171 C5 203.01 5 235.02 5 268 C17.54 268 30.08 268 43 268 C43 268.66 43 269.32 43 270 C29.47 270 15.94 270 2 270 C2 277.26 2 284.52 2 292 C1.34 292 0.68 292 0 292 C0 284.74 0 277.48 0 270 C-3.96 270 -7.92 270 -12 270 C-12 269.34 -12 268.68 -12 268 C-8.04 268 -4.08 268 0 268 C-0.33 236.32 -0.66 204.64 -1 172 C-11.9522589 166.20174529 -22.9028465 160.50069833 -34 155 C-37.96 153.02 -41.92 151.04 -46 149 C-46 176.72 -46 204.44 -46 233 C-55.24 233 -64.48 233 -74 233 C-74 244.55 -74 256.1 -74 268 C-70.04 268 -66.08 268 -62 268 C-62 268.66 -62 269.32 -62 270 C-65.96 270 -69.92 270 -74 270 C-74 275.61 -74 281.22 -74 287 C-74.99 287 -75.98 287 -77 287 C-77 281.39 -77 275.78 -77 270 C-113.96 270 -150.92 270 -189 270 C-189 281.88 -189 293.76 -189 306 C-189.66 306 -190.32 306 -191 306 C-191 294.12 -191 282.24 -191 270 C-212.12 270 -233.24 270 -255 270 C-255 269.34 -255 268.68 -255 268 C-233.88 268 -212.76 268 -191 268 C-191 227.08 -191 186.16 -191 144 C-192.98 144 -194.96 144 -197 144 C-197 143.34 -197 142.68 -197 142 C-195.02 142 -193.04 142 -191 142 C-191.01160156 140.90300781 -191.02320313 139.80601562 -191.03515625 138.67578125 C-191.04453964 137.22135588 -191.05363925 135.76692865 -191.0625 134.3125 C-191.07087891 133.59126953 -191.07925781 132.87003906 -191.08789062 132.12695312 C-191.10587165 128.18910758 -190.78013587 124.90067934 -190 121 C-173.5 121 -157 121 -140 121 C-140 103.51 -140 86.02 -140 68 C-142.97 68 -145.94 68 -149 68 C-149 67.34 -149 66.68 -149 66 C-125.24 66 -101.48 66 -77 66 C-77 45.54 -77 25.08 -77 4 C-76.01 4 -75.02 4 -74 4 C-74 24.13 -74 44.26 -74 65 C-49.58 65 -25.16 65 0 65 C0 43.55 0 22.1 0 0 Z " fill="#373436" transform="translate(330,59)"/>
<path d="M0 0 C8.25 0 16.5 0 25 0 C25 24.42 25 48.84 25 74 C24.01 74 23.02 74 22 74 C22.33 74.99 22.66 75.98 23 77 C19.54565686 79.00695291 16.0858937 81.00436779 12.625 83 C11.64015625 83.57234375 10.6553125 84.1446875 9.640625 84.734375 C8.69960938 85.27578125 7.75859375 85.8171875 6.7890625 86.375 C5.91975098 86.87773437 5.05043945 87.38046875 4.15478516 87.8984375 C2 89 2 89 0 89 C0 84.71 0 80.42 0 76 C0.99 76 1.98 76 3 76 C3 75.34 3 74.68 3 74 C0.03 74.495 0.03 74.495 -3 75 C-2.66935547 76.64935547 -2.66935547 76.64935547 -2.33203125 78.33203125 C-1.68326871 83.00949846 -1.17563674 87.53957146 -3 92 C-5.16932327 93.49461551 -7.30362208 94.25752043 -9.77738953 95.15483093 C-14.60113286 96.94968101 -18.6227141 99.04895761 -22 103 C-25.17994466 111.96393493 -24.18045796 122.18023314 -23.76818848 131.56903076 C-23.6331396 135.11472789 -23.60763106 138.6611406 -23.57226562 142.20898438 C-23.48729277 149.14443002 -23.27252804 156.06941212 -23 163 C-16.4 163 -9.8 163 -3 163 C-3 174.88 -3 186.76 -3 199 C-13.56 199 -24.12 199 -35 199 C-35 158.41 -35 117.82 -35 76 C-33.02 76 -31.04 76 -29 76 C-29 75.34 -29 74.68 -29 74 C-30.98 74 -32.96 74 -35 74 C-35 66.74 -35 59.48 -35 52 C-43.91 52 -52.82 52 -62 52 C-62 35.5 -62 19 -62 2 C-53.21484926 1.41432328 -44.67187696 0.8512473 -35.91015625 0.90234375 C-34.95475449 0.9037587 -33.99935272 0.90517365 -33.01499939 0.90663147 C-30.03079791 0.9121282 -27.04667792 0.92465909 -24.0625 0.9375 C-22.01106881 0.94252842 -19.95963642 0.94708893 -17.90820312 0.95117188 C-12.93874716 0.96120307 -7.96946232 0.98079641 -3 1 C-3 8.92 -3 16.84 -3 25 C-2.01 25 -1.02 25 0 25 C0 16.75 0 8.5 0 0 Z " fill="#FCFCFC" transform="translate(256,128)"/>
<path d="M0 0 C15.18 0 30.36 0 46 0 C46 40.59 46 81.18 46 123 C30.82 123 15.64 123 0 123 C0 82.41 0 41.82 0 0 Z " fill="#FFFFFF" transform="translate(144,204)"/>
<path d="M0 0 C7.92 0 15.84 0 24 0 C24 39.6 24 79.2 24 120 C16.08 120 8.16 120 0 120 C0 80.4 0 40.8 0 0 Z " fill="#FBFBFB" transform="translate(193,204)"/>
<path d="M0 0 C0 26.73 0 53.46 0 81 C-8.25 81 -16.5 81 -25 81 C-25.54571429 72.50574726 -25.98411902 64.0253767 -26.24349213 55.51822472 C-26.36809526 51.56601154 -26.53623532 47.62651681 -26.81054688 43.68164062 C-28.53907207 18.1859358 -28.53907207 18.1859358 -22.58300781 11.14123535 C-17.02898114 6.66828938 -7.50162618 0 0 0 Z " fill="#FCFCFC" transform="translate(281,207)"/>
<path d="M0 0 C0 21.12 0 42.24 0 64 C-5.61 64 -11.22 64 -17 64 C-17.37202406 56.33248876 -17.6434851 48.67026345 -17.82397461 40.99584961 C-17.89922 38.38879902 -18.00145383 35.78237771 -18.1315918 33.17749023 C-19.16082025 12.03996317 -19.16082025 12.03996317 -15.51153564 6.90594482 C-11.38289431 3.17705627 -5.68441028 0 0 0 Z " fill="#FBFBFB" transform="translate(253,224)"/>
<path d="M0 0 C4.46212212 3.80592769 7.69686443 7.89919071 8.34765625 13.84765625 C8.59858945 20.20826734 7.57694206 25.45004144 3.7890625 30.64453125 C0.23020726 34.35094878 -2.82896757 35.26548921 -7.9375 35.5 C-11.65136163 35.29573761 -14.42741413 35.0075644 -17.4375 32.75 C-22.72685709 26.37564658 -23.49072497 21.16380929 -23.29296875 12.98046875 C-22.52718044 7.1762228 -19.91681408 3.67930144 -15.6875 -0.1875 C-10.48210361 -2.03830761 -5.12069949 -2.11507153 0 0 Z " fill="#FAFAFA" transform="translate(280.875,391.1875)"/>
<path d="M0 0 C15.18 0 30.36 0 46 0 C46 5.94 46 11.88 46 18 C30.82 18 15.64 18 0 18 C0 12.06 0 6.12 0 0 Z " fill="#FAFAFA" transform="translate(144,184)"/>
<path d="M0 0 C14.52 0 29.04 0 44 0 C44 7.59 44 15.18 44 23 C39.56243746 21.52081249 35.9765112 20.08529761 31.89453125 17.953125 C30.17073242 17.0559375 30.17073242 17.0559375 28.41210938 16.140625 C27.21223142 15.5104322 26.01236166 14.88022381 24.8125 14.25 C23.64396484 13.6415625 22.47542969 13.033125 21.27148438 12.40625 C14.13762785 8.68216204 7.04928029 4.88171886 0 1 C0 0.67 0 0.34 0 0 Z " fill="#FAFAFA" transform="translate(286,204)"/>
<path d="M0 0 C1.65 0.33 3.3 0.66 5 1 C6.39379883 3.17724609 6.39379883 3.17724609 7.45703125 6.0234375 C7.84697266 7.044375 8.23691406 8.0653125 8.63867188 9.1171875 C9.2197168 10.72980469 9.2197168 10.72980469 9.8125 12.375 C10.21919922 13.44234375 10.62589844 14.5096875 11.04492188 15.609375 C14 23.49620536 14 23.49620536 14 27 C14.66 27 15.32 27 16 27 C16.22042969 26.195625 16.22042969 26.195625 16.4453125 25.375 C18.07734113 19.67227928 19.9220034 14.03750818 21.875 8.4375 C22.10719238 7.72271484 22.33938477 7.00792969 22.57861328 6.27148438 C23.3046875 4.24609375 23.3046875 4.24609375 25 1 C26.65 0.67 28.3 0.34 30 0 C30.66 11.88 31.32 23.76 32 36 C30.68 36 29.36 36 28 36 C27.34 28.08 26.68 20.16 26 12 C23.03 19.59 20.06 27.18 17 35 C15.68 35 14.36 35 13 35 C10.03 27.08 7.06 19.16 4 11 C3.34 19.25 2.68 27.5 2 36 C0.68 36 -0.64 36 -2 36 C-1.01 18.18 -1.01 18.18 0 0 Z " fill="#0D0C0D" transform="translate(400,461)"/>
<path d="M0 0 C1.65 0.33 3.3 0.66 5 1 C6.39379883 3.17724609 6.39379883 3.17724609 7.45703125 6.0234375 C7.84697266 7.044375 8.23691406 8.0653125 8.63867188 9.1171875 C9.2197168 10.72980469 9.2197168 10.72980469 9.8125 12.375 C10.21919922 13.44234375 10.62589844 14.5096875 11.04492188 15.609375 C14 23.49620536 14 23.49620536 14 27 C14.66 27 15.32 27 16 27 C16.22042969 26.195625 16.22042969 26.195625 16.4453125 25.375 C18.07734113 19.67227928 19.9220034 14.03750818 21.875 8.4375 C22.10719238 7.72271484 22.33938477 7.00792969 22.57861328 6.27148438 C23.3046875 4.24609375 23.3046875 4.24609375 25 1 C26.65 0.67 28.3 0.34 30 0 C30.66 11.88 31.32 23.76 32 36 C30.68 36 29.36 36 28 36 C27.34 28.08 26.68 20.16 26 12 C23.03 19.59 20.06 27.18 17 35 C15.68 35 14.36 35 13 35 C10.03 27.08 7.06 19.16 4 11 C3.34 19.25 2.68 27.5 2 36 C0.68 36 -0.64 36 -2 36 C-1.01 18.18 -1.01 18.18 0 0 Z " fill="#0D0C0D" transform="translate(180,461)"/>
<path d="M0 0 C1.65 0 3.3 0 5 0 C6.85564602 4.80387577 8.70694675 9.60939427 10.55419922 14.41650391 C11.1835333 16.05238264 11.81406291 17.68780196 12.44580078 19.32275391 C13.3524162 21.66970655 14.25475215 24.01826518 15.15625 26.3671875 C15.44060913 27.10057343 15.72496826 27.83395935 16.01794434 28.58956909 C18 33.77225659 18 33.77225659 18 36 C16.68 36 15.36 36 14 36 C13.01 33.03 12.02 30.06 11 27 C5.39 27 -0.22 27 -6 27 C-6.99 29.97 -7.98 32.94 -9 36 C-10.32 35.67 -11.64 35.34 -13 35 C-8.71 23.45 -4.42 11.9 0 0 Z " fill="#0E0E0E" transform="translate(45,461)"/>
<path d="M0 0 C1.65 0 3.3 0 5 0 C6.85564602 4.80387577 8.70694675 9.60939427 10.55419922 14.41650391 C11.1835333 16.05238264 11.81406291 17.68780196 12.44580078 19.32275391 C13.3524162 21.66970655 14.25475215 24.01826518 15.15625 26.3671875 C15.44060913 27.10057343 15.72496826 27.83395935 16.01794434 28.58956909 C18 33.77225659 18 33.77225659 18 36 C16.68 36 15.36 36 14 36 C13.01 33.03 12.02 30.06 11 27 C5.39 27 -0.22 27 -6 27 C-6.99 29.97 -7.98 32.94 -9 36 C-10.32 35.67 -11.64 35.34 -13 35 C-8.71 23.45 -4.42 11.9 0 0 Z " fill="#0E0E0E" transform="translate(375,390)"/>
<path d="M0 0 C7.59 0 15.18 0 23 0 C23 5.94 23 11.88 23 18 C15.41 18 7.82 18 0 18 C0 12.06 0 6.12 0 0 Z " fill="#FCFCFC" transform="translate(194,184)"/>
<path d="M0 0 C5 1 5 1 6.49804688 2.54711914 C6.90087891 3.20317139 7.30371094 3.85922363 7.71875 4.53515625 C8.17636719 5.26283203 8.63398438 5.99050781 9.10546875 6.74023438 C9.79576172 7.88975586 9.79576172 7.88975586 10.5 9.0625 C11.19029297 10.17141602 11.19029297 10.17141602 11.89453125 11.30273438 C12.77067534 12.71320296 13.64065884 14.1275339 14.50195312 15.54711914 C16.64031926 19.04844974 18.82558766 22.52094026 21 26 C21.33 17.42 21.66 8.84 22 0 C23.32 0 24.64 0 26 0 C26 11.88 26 23.76 26 36 C20.94007412 34.73501853 19.80074399 32.29637538 17.1875 28.125 C16.78724609 27.50625 16.38699219 26.8875 15.97460938 26.25 C14.63676436 24.17497507 13.31902399 22.0870394 12 20 C9.69 16.37 7.38 12.74 5 9 C4.67 17.91 4.34 26.82 4 36 C2.68 36 1.36 36 0 36 C0 24.12 0 12.24 0 0 Z " fill="#141414" transform="translate(267,461)"/>
<path d="M0 0 C5 1 5 1 6.49804688 2.54711914 C6.90087891 3.20317139 7.30371094 3.85922363 7.71875 4.53515625 C8.17636719 5.26283203 8.63398438 5.99050781 9.10546875 6.74023438 C9.79576172 7.88975586 9.79576172 7.88975586 10.5 9.0625 C11.19029297 10.17141602 11.19029297 10.17141602 11.89453125 11.30273438 C12.77067534 12.71320296 13.64065884 14.1275339 14.50195312 15.54711914 C16.64031926 19.04844974 18.82558766 22.52094026 21 26 C21.33 17.42 21.66 8.84 22 0 C23.32 0 24.64 0 26 0 C26 11.88 26 23.76 26 36 C20.94007412 34.73501853 19.80074399 32.29637538 17.1875 28.125 C16.78724609 27.50625 16.38699219 26.8875 15.97460938 26.25 C14.63676436 24.17497507 13.31902399 22.0870394 12 20 C9.69 16.37 7.38 12.74 5 9 C4.67 17.91 4.34 26.82 4 36 C2.68 36 1.36 36 0 36 C0 24.12 0 12.24 0 0 Z " fill="#141414" transform="translate(313,390)"/>
<path d="M0 0 C4.46212212 3.80592769 7.69686443 7.89919071 8.34765625 13.84765625 C8.59858945 20.20826734 7.57694206 25.45004144 3.7890625 30.64453125 C0.23020726 34.35094878 -2.82896757 35.26548921 -7.9375 35.5 C-11.65136163 35.29573761 -14.42741413 35.0075644 -17.4375 32.75 C-22.72685709 26.37564658 -23.49072497 21.16380929 -23.29296875 12.98046875 C-22.52718044 7.1762228 -19.91681408 3.67930144 -15.6875 -0.1875 C-10.48210361 -2.03830761 -5.12069949 -2.11507153 0 0 Z M-16.875 6.8125 C-19.80550841 11.4814456 -19.37000648 16.48344584 -18.875 21.8125 C-17.25626917 26.49829977 -15.16329891 29.27850519 -10.875 31.8125 C-6.68522845 32.41103879 -4.67464475 32.31005673 -1.0625 30.0625 C2.97541446 25.90921656 3.43801553 22.70205599 3.5 16.9375 C3.41617802 11.17773271 3.22601884 7.91351884 -0.875 3.8125 C-6.97403136 -0.660123 -12.02328422 1.96078422 -16.875 6.8125 Z " fill="#111010" transform="translate(280.875,391.1875)"/>
<path d="M0 0 C7.59 0 15.18 0 23 0 C23 1.32 23 2.64 23 4 C16.73 4 10.46 4 4 4 C4 7.63 4 11.26 4 15 C9.61 15 15.22 15 21 15 C21 16.32 21 17.64 21 19 C15.39 19 9.78 19 4 19 C4 23.62 4 28.24 4 33 C10.27 33 16.54 33 23 33 C23 33.99 23 34.98 23 36 C15.41 36 7.82 36 0 36 C0 24.12 0 12.24 0 0 Z " fill="#1A1A1A" transform="translate(120,390)"/>
<path d="M0 0 C0.66 0 1.32 0 2 0 C2 21.45 2 42.9 2 65 C15.53 65 29.06 65 43 65 C43 65.66 43 66.32 43 67 C29.47 67 15.94 67 2 67 C2 68.65 2 70.3 2 72 C-0.375 71.25 -0.375 71.25 -3 70 C-3.66 68.68 -4.32 67.36 -5 66 C-27.77 66 -50.54 66 -74 66 C-74 65.67 -74 65.34 -74 65 C-49.58 65 -25.16 65 0 65 C0 43.55 0 22.1 0 0 Z " fill="#656364" transform="translate(330,59)"/>
<path d="M0 0 C1.32 0 2.64 0 4 0 C4.01458252 0.76143311 4.02916504 1.52286621 4.04418945 2.30737305 C4.11880541 5.76791888 4.21542259 9.22751445 4.3125 12.6875 C4.33505859 13.88568359 4.35761719 15.08386719 4.38085938 16.31835938 C4.41630859 17.47529297 4.45175781 18.63222656 4.48828125 19.82421875 C4.51446533 20.88729248 4.54064941 21.95036621 4.56762695 23.0456543 C5.09679626 26.66139559 6.39414949 29.39414949 9 32 C14.6047709 32.21326403 14.6047709 32.21326403 20 31 C21.31304506 27.71810748 21.20096782 24.19926033 21.31640625 20.703125 C21.35830078 19.49785156 21.40019531 18.29257812 21.44335938 17.05078125 C21.48267578 15.79652344 21.52199219 14.54226563 21.5625 13.25 C21.62727539 11.34541016 21.62727539 11.34541016 21.69335938 9.40234375 C21.79939722 6.26833635 21.90146058 3.13425067 22 0 C23.32 0 24.64 0 26 0 C26.08738991 4.37487331 26.140524 8.74952078 26.1875 13.125 C26.21263672 14.3625 26.23777344 15.6 26.26367188 16.875 C26.27333984 18.07382812 26.28300781 19.27265625 26.29296875 20.5078125 C26.3086792 21.60754395 26.32438965 22.70727539 26.34057617 23.84033203 C25.85182032 28.37472506 24.33599465 31.74750502 21 34.875 C16.31706625 36.63110016 11.91364091 37.03596529 7 36 C3.74635416 33.57398058 1.79700992 30.59401984 0 27 C-0.08527628 24.96767366 -0.10716135 22.93252994 -0.09765625 20.8984375 C-0.09443359 19.68671875 -0.09121094 18.475 -0.08789062 17.2265625 C-0.07951172 15.95554687 -0.07113281 14.68453125 -0.0625 13.375 C-0.05798828 12.09625 -0.05347656 10.8175 -0.04882812 9.5 C-0.03701203 6.33328708 -0.02053815 3.16666644 0 0 Z " fill="#141314" transform="translate(348,461)"/>
<path d="M0 0 C1.32 0 2.64 0 4 0 C4.01458252 0.76143311 4.02916504 1.52286621 4.04418945 2.30737305 C4.11880541 5.76791888 4.21542259 9.22751445 4.3125 12.6875 C4.33505859 13.88568359 4.35761719 15.08386719 4.38085938 16.31835938 C4.41630859 17.47529297 4.45175781 18.63222656 4.48828125 19.82421875 C4.51446533 20.88729248 4.54064941 21.95036621 4.56762695 23.0456543 C5.09679626 26.66139559 6.39414949 29.39414949 9 32 C14.6047709 32.21326403 14.6047709 32.21326403 20 31 C21.31304506 27.71810748 21.20096782 24.19926033 21.31640625 20.703125 C21.35830078 19.49785156 21.40019531 18.29257812 21.44335938 17.05078125 C21.48267578 15.79652344 21.52199219 14.54226563 21.5625 13.25 C21.62727539 11.34541016 21.62727539 11.34541016 21.69335938 9.40234375 C21.79939722 6.26833635 21.90146058 3.13425067 22 0 C23.32 0 24.64 0 26 0 C26.08738991 4.37487331 26.140524 8.74952078 26.1875 13.125 C26.21263672 14.3625 26.23777344 15.6 26.26367188 16.875 C26.27333984 18.07382812 26.28300781 19.27265625 26.29296875 20.5078125 C26.3086792 21.60754395 26.32438965 22.70727539 26.34057617 23.84033203 C25.85182032 28.37472506 24.33599465 31.74750502 21 34.875 C16.31706625 36.63110016 11.91364091 37.03596529 7 36 C3.74635416 33.57398058 1.79700992 30.59401984 0 27 C-0.08527628 24.96767366 -0.10716135 22.93252994 -0.09765625 20.8984375 C-0.09443359 19.68671875 -0.09121094 18.475 -0.08789062 17.2265625 C-0.07951172 15.95554687 -0.07113281 14.68453125 -0.0625 13.375 C-0.05798828 12.09625 -0.05347656 10.8175 -0.04882812 9.5 C-0.03701203 6.33328708 -0.02053815 3.16666644 0 0 Z " fill="#141314" transform="translate(128,461)"/>
<path d="M0 0 C0.99 0 1.98 0 3 0 C3 11.55 3 23.1 3 35 C6.96 35 10.92 35 15 35 C15 35.66 15 36.32 15 37 C11.04 37 7.08 37 3 37 C3 42.61 3 48.22 3 54 C2.01 54 1.02 54 0 54 C0 48.39 0 42.78 0 37 C-36.96 37 -73.92 37 -112 37 C-112 36.67 -112 36.34 -112 36 C-57.055 35.505 -57.055 35.505 -1 35 C-0.67 23.45 -0.34 11.9 0 0 Z " fill="#656363" transform="translate(253,292)"/>
<path d="M0 0 C0.33 0 0.66 0 1 0 C1 31.02 1 62.04 1 94 C21.295 94.495 21.295 94.495 42 95 C42 95.66 42 96.32 42 97 C28.47 97 14.94 97 1 97 C1 104.26 1 111.52 1 119 C0.34 119 -0.32 119 -1 119 C-1 111.74 -1 104.48 -1 97 C-4.96 97 -8.92 97 -13 97 C-12.505 96.01 -12.505 96.01 -12 95 C-8.37 95 -4.74 95 -1 95 C-0.67 63.65 -0.34 32.3 0 0 Z " fill="#5B5959" transform="translate(331,232)"/>
<path d="M0 0 C7.92 0 15.84 0 24 0 C24 0.99 24 1.98 24 3 C20.7 3 17.4 3 14 3 C14 13.89 14 24.78 14 36 C12.68 36 11.36 36 10 36 C10 25.44 10 14.88 10 4 C6.7 4 3.4 4 0 4 C0 2.68 0 1.36 0 0 Z " fill="#171717" transform="translate(212,390)"/>
<path d="M0 0 C7.92 0 15.84 0 24 0 C24 0.99 24 1.98 24 3 C20.7 3 17.4 3 14 3 C14 13.89 14 24.78 14 36 C12.68 36 11.36 36 10 36 C10 25.44 10 14.88 10 4 C6.7 4 3.4 4 0 4 C0 2.68 0 1.36 0 0 Z " fill="#171717" transform="translate(72,390)"/>
<path d="M0 0 C1.32 0 2.64 0 4 0 C4 10.89 4 21.78 4 33 C9.61 33 15.22 33 21 33 C21 33.99 21 34.98 21 36 C14.07 36 7.14 36 0 36 C0 24.12 0 12.24 0 0 Z " fill="#111111" transform="translate(86,461)"/>
<path d="M0 0 C0.69738281 0.13792969 1.39476562 0.27585937 2.11328125 0.41796875 C-1.53612582 5.44425834 -5.32843157 10.10329572 -9.6640625 14.55859375 C-11.11203446 16.31800617 -11.11203446 16.31800617 -10.63110352 18.32275391 C-9.8061064 20.64486779 -8.83073963 21.96424971 -7.19921875 23.80078125 C-6.39871094 24.71537109 -6.39871094 24.71537109 -5.58203125 25.6484375 C-5.02257812 26.27363281 -4.463125 26.89882813 -3.88671875 27.54296875 C-2.78085389 28.79407392 -1.67660861 30.04661307 -0.57421875 31.30078125 C-0.08308594 31.85137207 0.40804687 32.40196289 0.9140625 32.96923828 C2.11328125 34.41796875 2.11328125 34.41796875 3.11328125 36.41796875 C0.9609375 36.7734375 0.9609375 36.7734375 -1.88671875 36.41796875 C-3.97145459 34.56388454 -5.66665856 32.83937838 -7.44921875 30.73046875 C-7.91779297 30.20001953 -8.38636719 29.66957031 -8.86914062 29.12304688 C-11.63934037 25.96540661 -14.28572534 22.71664039 -16.88671875 19.41796875 C-15.33546917 14.44064649 -12.39583849 11.00546 -9.07421875 7.10546875 C-8.29208008 6.13770508 -8.29208008 6.13770508 -7.49414062 5.15039062 C-3.56624603 0.51635768 -3.56624603 0.51635768 0 0 Z " fill="#121212" transform="translate(188.88671875,389.58203125)"/>
<path d="M0 0 C0.66 0 1.32 0 2 0 C3.66303921 1.94329212 5.21248835 3.8976763 6.75 5.9375 C11.0629228 11.54893719 15.47862164 17.05514559 20 22.5 C24.23709623 27.61419119 28.42082979 32.75892104 32.5 38 C37.22204861 44.06605014 42.08904176 50.00438478 46.98876953 55.92749023 C51.38290194 61.24079714 55.72188397 66.59256763 60 72 C59.34 72.66 58.68 73.32 58 74 C44.75737823 58.04131621 44.75737823 58.04131621 38.5 50 C34.42091349 44.75881729 30.23632841 39.61484289 26 34.5 C20.72866839 28.13411803 15.56497835 21.6976416 10.48828125 15.17578125 C7.51400536 11.35931445 4.44493748 7.62072593 1.36328125 3.890625 C0 2 0 2 0 0 Z " fill="#3E3B3C" transform="translate(242,22)"/>
<path d="M0 0 C0.66 0 1.32 0 2 0 C2.15601195 7.59057541 2.30411849 15.18127336 2.4429636 22.77218151 C2.50771168 26.29945839 2.57487633 29.82664976 2.64819336 33.35375977 C2.9841947 49.6058436 3.09347947 65.76884223 2 82 C1.34 82 0.68 82 0 82 C0 75.07 0 68.14 0 61 C-0.66 61 -1.32 61 -2 61 C-2 60.34 -2 59.68 -2 59 C-1.34 59 -0.68 59 0 59 C0 39.53 0 20.06 0 0 Z " fill="#4F4C4D" transform="translate(139,66)"/>
<path d="M0 0 C1.32 0 2.64 0 4 0 C4 11.88 4 23.76 4 36 C2.68 36 1.36 36 0 36 C0 24.12 0 12.24 0 0 Z " fill="#171717" transform="translate(319,461)"/>
<path d="M0 0 C1.32 0 2.64 0 4 0 C4 11.88 4 23.76 4 36 C2.68 36 1.36 36 0 36 C0 24.12 0 12.24 0 0 Z " fill="#171717" transform="translate(237,461)"/>
<path d="M0 0 C1.32 0 2.64 0 4 0 C4 11.88 4 23.76 4 36 C2.68 36 1.36 36 0 36 C0 24.12 0 12.24 0 0 Z " fill="#191818" transform="translate(167,390)"/>
<path d="M0 0 C3.14878942 1.57439471 3.54022492 4.71527725 4.625 7.875 C4.85445312 8.51308594 5.08390625 9.15117187 5.3203125 9.80859375 C6.32486598 12.67276705 7 14.94250743 7 18 C2.71 18 -1.58 18 -6 18 C-5.19950264 13.19701584 -4.32420375 9.97893173 -2.4375 5.625 C-1.98246094 4.56539063 -1.52742188 3.50578125 -1.05859375 2.4140625 C-0.70925781 1.61742187 -0.35992187 0.82078125 0 0 Z " fill="#F2F2F2" transform="translate(47,467)"/>
<path d="M0 0 C3.14878942 1.57439471 3.54022492 4.71527725 4.625 7.875 C4.85445313 8.51308594 5.08390625 9.15117187 5.3203125 9.80859375 C6.32486598 12.67276705 7 14.94250743 7 18 C2.71 18 -1.58 18 -6 18 C-5.19950264 13.19701584 -4.32420375 9.97893173 -2.4375 5.625 C-1.98246094 4.56539063 -1.52742188 3.50578125 -1.05859375 2.4140625 C-0.70925781 1.61742187 -0.35992187 0.82078125 0 0 Z " fill="#F3F3F3" transform="translate(377,396)"/>
<path d="M0 0 C3.81346128 1.51681494 5.67252097 3.74453026 8.1875 6.9375 C8.98027344 7.93265625 9.77304687 8.9278125 10.58984375 9.953125 C11.38519531 10.95859375 12.18054688 11.9640625 13 13 C14.41313076 14.73205752 15.82977257 16.46125672 17.25 18.1875 C18.83371014 20.12469201 20.41699795 22.06222932 22 24 C22.51675293 24.63164062 23.03350586 25.26328125 23.56591797 25.9140625 C25.27479055 28.00384333 26.98132328 30.09551782 28.6875 32.1875 C29.22213867 32.84065186 29.75677734 33.49380371 30.30761719 34.16674805 C33.99256093 38.69088816 37.53162165 43.30794484 41 48 C40.505 48.99 40.505 48.99 40 50 C34.89549528 44.44648792 29.96521196 38.81643631 25.29296875 32.89453125 C22.41302209 29.25902788 19.48903104 25.66053536 16.5625 22.0625 C16.005625 21.37631592 15.44875 20.69013184 14.875 19.9831543 C12.33233441 16.85283224 9.78248458 13.7297483 7.19921875 10.6328125 C6.39097656 9.66085938 5.58273437 8.68890625 4.75 7.6875 C4.04359375 6.84574219 3.3371875 6.00398437 2.609375 5.13671875 C1 3 1 3 0 0 Z " fill="#3E3C3C" transform="translate(333,135)"/>
<path d="M0 0 C4.26768447 3.10656672 7.20382899 6.55905094 10.3125 10.75 C10.76689453 11.35199219 11.22128906 11.95398438 11.68945312 12.57421875 C12.79857709 14.04526738 13.90008363 15.52205412 15 17 C14.67 17.66 14.34 18.32 14 19 C0 3.84095861 0 3.84095861 0 0 Z " fill="#383637" transform="translate(359,166)"/>
<path d="M0 0 C2.93200474 2.85276137 5.64315404 5.65079784 8 9 C7.01 9 6.02 9 5 9 C3.39453125 7.25 3.39453125 7.25 1.8125 5 C1.28269531 4.2575 0.75289063 3.515 0.20703125 2.75 C-0.19128906 2.1725 -0.58960938 1.595 -1 1 C-0.67 0.67 -0.34 0.34 0 0 Z " fill="#444242" transform="translate(352,157)"/>
<path d="M0 0 C4.29 0 8.58 0 13 0 C13 1.65 13 3.3 13 5 C10.525 4.01 10.525 4.01 8 3 C8 2.34 8 1.68 8 1 C5.36 1 2.72 1 0 1 C0 0.67 0 0.34 0 0 Z " fill="#6D6B6C" transform="translate(317,124)"/>
<path d="M0 0 C6.57142857 5.14285714 6.57142857 5.14285714 8 9 C7.01 9.33 6.02 9.66 5 10 C2.96022723 6.75490696 1.33488128 3.59391114 0 0 Z " fill="#383536" transform="translate(381,193)"/>
<path d="M0 0 C0.99 0 1.98 0 3 0 C3 2.31 3 4.62 3 7 C2.01 7 1.02 7 0 7 C0 4.69 0 2.38 0 0 Z " fill="#484546" transform="translate(253,190)"/>
<path d="M0 0 C2.64752004 2.57784846 4.94432065 4.91648098 7 8 C6.01 8 5.02 8 4 8 C2.61328125 6.46875 2.61328125 6.46875 1.3125 4.5 C0.87550781 3.8503125 0.43851562 3.200625 -0.01171875 2.53125 C-0.50091797 1.77328125 -0.50091797 1.77328125 -1 1 C-0.67 0.67 -0.34 0.34 0 0 Z " fill="#444142" transform="translate(270,56)"/>
<path d="M0 0 C0.99 0 1.98 0 3 0 C3 1.98 3 3.96 3 6 C2.01 6 1.02 6 0 6 C0 4.02 0 2.04 0 0 Z " fill="#626061" transform="translate(253,169)"/>
<path d="M0 0 C0.99 0 1.98 0 3 0 C3 1.98 3 3.96 3 6 C2.01 6 1.02 6 0 6 C0 4.02 0 2.04 0 0 Z " fill="#4E4B4C" transform="translate(253,158)"/>
</svg>
